<svg width="70" height="76" viewBox="0 0 70 76" fill="none" xmlns="http://www.w3.org/2000/svg">
<path d="M0 10C0 4.47715 4.47715 0 10 0H60C65.5229 0 70 4.47715 70 10V66C70 71.5229 65.5229 76 60 76H10C4.47715 76 0 71.5229 0 66V10Z" fill="#E74040"/>
<path d="M34.9994 50.0001C33.3153 48.5636 31.7543 46.9888 30.3327 45.2921C28.1994 42.7441 25.666 38.9494 25.666 35.3334C25.6641 31.5568 27.9383 28.1513 31.4274 26.7059C34.9165 25.2606 38.9328 26.0604 41.602 28.7321C43.3573 30.4795 44.3406 32.8566 44.3327 35.3334C44.3327 38.9494 41.7994 42.7441 39.666 45.2921C38.2444 46.9888 36.6834 48.5636 34.9994 50.0001ZM34.9994 28.6667C31.3193 28.6711 28.3371 31.6533 28.3327 35.3334C28.3327 36.8881 29.0354 39.5801 32.3794 43.5814C33.2035 44.5655 34.078 45.5063 34.9994 46.4001C35.9207 45.5073 36.7957 44.5679 37.6207 43.5854C40.9634 39.5787 41.666 36.8867 41.666 35.3334C41.6616 31.6533 38.6794 28.6711 34.9994 28.6667ZM34.9994 39.3334C32.7902 39.3334 30.9994 37.5425 30.9994 35.3334C30.9994 33.1243 32.7902 31.3334 34.9994 31.3334C37.2085 31.3334 38.9994 33.1243 38.9994 35.3334C38.9994 36.3943 38.5779 37.4117 37.8278 38.1618C37.0776 38.912 36.0602 39.3334 34.9994 39.3334Z" fill="white"/>
</svg>
