<svg width="70" height="76" viewBox="0 0 70 76" fill="none" xmlns="http://www.w3.org/2000/svg">
<path d="M0 10C0 4.47715 4.47715 0 10 0H60C65.5229 0 70 4.47715 70 10V66C70 71.5229 65.5229 76 60 76H10C4.47715 76 0 71.5229 0 66V10Z" fill="#E74040"/>
<path d="M37.2133 27.7332C37.0866 27.1123 36.5404 26.6665 35.9067 26.6665H26.3333C25.597 26.6665 25 27.2635 25 27.9998V47.9998C25 48.7362 25.597 49.3332 26.3333 49.3332C27.0697 49.3332 27.6667 48.7362 27.6667 47.9998V39.9998H35.1333L35.4533 41.5998C35.5743 42.2242 36.1241 42.673 36.76 42.6665H43.6667C44.403 42.6665 45 42.0696 45 41.3332V30.6665C45 29.9301 44.403 29.3332 43.6667 29.3332H37.5333L37.2133 27.7332Z" fill="white"/>
</svg>
